<?xml version="1.0" standalone="no"?>
<!DOCTYPE svg PUBLIC "-//W3C//DTD SVG 20010904//EN"
 "http://www.w3.org/TR/2001/REC-SVG-20010904/DTD/svg10.dtd">
<svg version="1.0" xmlns="http://www.w3.org/2000/svg"
 width="512.000000pt" height="512.000000pt" viewBox="0 0 512.000000 512.000000"
 preserveAspectRatio="xMidYMid meet">
<metadata>
Created by potrace 1.14, written by Peter Selinger 2001-2017
</metadata>
<g transform="translate(0.000000,512.000000) scale(0.100000,-0.100000)"
fill="#000000" stroke="none">
<path d="M320 4761 c-103 -21 -224 -110 -270 -201 -52 -102 -50 -16 -47 -1720
l2 -1585 28 -59 c54 -116 144 -196 256 -230 29 -8 56 -15 59 -15 4 1 469 1
1035 0 l1027 -1 0 -150 0 -150 -265 0 -265 0 0 -150 0 -150 680 0 680 0 0 150
c0 83 -3 150 -7 150 -5 1 -124 1 -265 1 l-258 1 0 149 0 149 1028 1 c565 1
1030 1 1034 0 3 0 30 7 59 15 132 39 232 143 275 283 20 67 21 3140 0 3216
-37 142 -133 242 -274 285 -63 20 -101 20 -2270 19 -1214 -1 -2223 -4 -2242
-8z m4467 -324 l28 -27 1 -1220 c2 -912 -1 -1220 -10 -1221 -32 -3 -4464 -4
-4483 -1 l-22 4 2 1218 2 1218 24 26 c13 14 33 27 45 29 11 2 1003 3 2203 3
l2183 -1 27 -28z m28 -2950 l0 -177 -28 -27 -27 -28 -2195 -2 -2195 -3 -32 29
-33 29 -1 174 c-1 95 0 175 1 178 2 3 1017 5 2257 4 l2253 0 0 -177z"/>
</g>
</svg>
